<svg width="222" height="67" viewBox="0 0 222 67" fill="none" xmlns="http://www.w3.org/2000/svg">
<g clip-path="url(#clip0_54_3)">
<path d="M70.4 0.0499773V52.12C60.24 52.09 47.48 54.17 40.29 62.01C39.66 62.7 37.76 65.8 37.53 65.94C37.15 66.17 33.09 66.19 32.92 66.04C32.83 65.96 32.2 64.29 31.84 63.78C25.56 54.9 10.98 52.07 0.73 52.12C0.49 52.13 0 51.85 0 51.68V0.0499773C10.5 -0.380023 24.69 1.90998 32.3 9.78998C32.86 10.37 34.93 13.54 35.34 13.43C35.49 13.39 36.86 11.35 37.23 10.95C45.14 2.32998 59.13 -0.420023 70.4 0.0499773ZM5.24 5.28998V47.47C13.83 47.64 22.62 49.88 29.65 54.91L32.87 57.65C32.59 46.86 33.24 35.99 32.89 25.2C32.82 23.03 32.82 19.58 32.01 17.64C28.52 9.28998 13.58 4.96998 5.24 5.28998ZM65.16 5.28998C57.02 5.05998 43.25 9.00998 39.11 16.63C38.79 17.21 37.81 19.49 37.81 19.99V57.95C38.44 57.58 38.98 56.64 39.49 56.2C46.24 50.34 56.38 47.78 65.15 47.48V5.28998H65.16Z" fill="white"/>
<path d="M166.39 2.09003V11.69C169.48 8.13003 176.03 8.40003 178.24 12.79C178.49 13.28 179.19 15.21 179.19 15.62V29.73H173.95V17.66C173.95 17.55 173.45 16.15 173.33 15.95C171.59 12.92 166.39 14.46 166.39 17.66V29.73H161.15V2.09003H166.39Z" fill="white"/>
<path d="M103.27 2.38V7.61H90.76V14.3H101.81V19.25H90.76V29.72H85.23V2.38H103.27Z" fill="white"/>
<path d="M191.7 63.17H186.9C186.34 63.17 186.58 61.73 186.32 61.43C181.84 65.81 172.96 63.73 173.36 56.62C173.48 54.51 174.69 53.13 176.51 52.2C177.46 51.72 180.1 50.95 181.08 50.95H186.46C186.89 48.28 184.81 46.21 182.16 46.78C179.71 47.31 179.97 49.79 179.76 49.79H174.52C173.81 41.53 187.22 40.11 190.64 46.03C190.96 46.58 191.68 48.55 191.68 49.06V63.17H191.7ZM186.47 54.45C184.41 54.14 176.96 54.62 179.36 58.22C181.33 61.17 187.74 58.26 186.47 54.45Z" fill="white"/>
<path d="M123.05 54.74H108.8C109.06 58.11 112.41 60.05 115.49 58.67C116.25 58.33 117.53 56.78 117.67 56.78H122.76C120.23 66.83 104.73 65.56 103.35 55.4C101.08 38.69 124.53 37.93 123.06 54.75L123.05 54.74ZM117.52 50.96C116.75 45.3 109.6 45.45 108.79 50.96H117.52Z" fill="white"/>
<path d="M123.63 23.61C120.3 34.3 104.42 31.72 104.13 20.25C103.81 7.49 121.15 4.83 123.55 17.14C123.67 17.76 124.25 21.57 123.48 21.57H109.95C109.6 25.34 114.83 26.93 117.37 24.77C117.61 24.57 118.09 23.6 118.24 23.6H123.62L123.63 23.61ZM118.4 17.79C117.79 12.18 110.56 12.17 109.96 17.79H118.4Z" fill="white"/>
<path d="M191.35 9.15001C204.96 7.83001 207.12 29.06 193.3 30.3C179 31.58 177.89 10.46 191.35 9.15001ZM191.04 14.08C186.18 15.09 185.83 24.6 191.58 25.33C199.62 26.35 198.84 12.46 191.04 14.08Z" fill="white"/>
<path d="M171.05 63.17H165.52V50.23C165.52 49.85 164.74 48.53 164.34 48.21C162.69 46.86 159.71 47.24 158.58 49.11C158.46 49.3 157.95 50.44 157.95 50.52V63.17H152.42V42.81H157.95C158.07 42.81 157.86 44.81 157.95 45.14C161.43 40.94 168.96 41.63 170.6 47.18C170.68 47.44 171.04 48.97 171.04 49.07V63.18L171.05 63.17Z" fill="white"/>
<path d="M105.3 35.83V40.78H97.4499V63.17H91.9199V40.78H84.0699V35.83H105.3Z" fill="white"/>
<path d="M210.61 49.21H205.66C205.56 49.21 205.52 47.84 204.99 47.26C203 45.08 198.19 47.03 200.13 49.36C201.58 51.09 206.98 50.66 209.42 52.86C211.55 54.77 211.44 59.04 209.55 61.1C205.39 65.64 193.8 64.22 194.02 56.77H198.82C198.95 56.77 199.52 58.11 199.98 58.52C201.61 59.99 206.16 59.98 205.66 56.93C205.38 55.21 199.72 54.85 197.99 54.11C192.31 51.71 193.8 44.51 199.2 42.88C204.19 41.37 210.42 43.25 210.61 49.2V49.21Z" fill="white"/>
<path d="M124.21 56.77H129.45C129.5 56.77 129.55 57.42 129.78 57.74C132.7 61.83 138.97 57.73 134.69 55.75C131.73 54.38 125.81 55.03 124.86 50.45C122.82 40.61 140.53 39.38 140.67 48.93C140.4 49.31 136.84 49.34 136.32 49.16C135.77 48.97 135.76 47.73 135.13 47.15C132.3 44.53 127.53 48.44 131.32 50.09C134.56 51.49 139.58 50.63 141.02 54.94C144.47 65.33 124.66 67 124.21 56.76V56.77Z" fill="white"/>
<path d="M158.83 17.21H153.3C153.25 17.21 153.17 16.58 152.96 16.25C149.24 10.39 142.51 16.92 145.5 22.83C147.05 25.89 151.26 26.39 153.13 23.28C153.33 22.95 153.26 22.45 153.3 22.45H158.83C157.56 33.4 141.11 32.54 139.47 22.17C137.27 8.26003 155.65 3.69003 158.83 17.21Z" fill="white"/>
<path d="M215.85 15.76C215.76 15.7 215.53 14.37 214.97 13.88C212.09 11.37 206.64 15.47 212.07 17.07C215.34 18.03 219.13 17.63 220.65 21.58C224.48 31.58 204.08 33.92 203.93 23.61C205.33 23.84 207.39 22.9 208.69 23.36C209.19 23.54 209.15 24.28 209.45 24.63C212.69 28.3 218.2 24.33 214.77 22.51C211.62 20.84 204.82 22.02 204.52 16.15C204.07 7.32998 220.56 6.54998 220.5 15.75C219.72 15.58 216.18 15.97 215.85 15.75V15.76Z" fill="white"/>
<path d="M138.76 9.35999V14.89C136.7 14.75 134.06 15.11 132.81 16.94C132.66 17.15 132.07 18.41 132.07 18.53V29.73H126.54V9.64999H132.07C132.24 10.33 131.69 11.88 132.36 12.27C133.1 9.28999 136.18 9.18999 138.76 9.35999Z" fill="white"/>
<path d="M149.23 42.81H143.7V63.17H149.23V42.81Z" fill="white"/>
<path d="M145.37 34.16C151.19 32.67 151.77 40.95 146.46 40.8C142.75 40.7 142.06 35 145.37 34.16Z" fill="white"/>
</g>
<defs>
<clipPath id="clip0_54_3">
<rect width="221.12" height="66.13" fill="white"/>
</clipPath>
</defs>
</svg>
